<?xml version="1.0" standalone="no"?><!DOCTYPE svg PUBLIC "-//W3C//DTD SVG 1.1//EN" "http://www.w3.org/Graphics/SVG/1.1/DTD/svg11.dtd"><svg t="1627117331785" class="icon" viewBox="0 0 1024 1024" version="1.1" xmlns="http://www.w3.org/2000/svg" p-id="4028" xmlns:xlink="http://www.w3.org/1999/xlink" width="200" height="200"><defs><style type="text/css">@font-face { font-family: feedback-iconfont; src: url("//at.alicdn.com/t/font_1031158_1uhr8ri0pk5.eot?#iefix") format("embedded-opentype"), url("//at.alicdn.com/t/font_1031158_1uhr8ri0pk5.woff2") format("woff2"), url("//at.alicdn.com/t/font_1031158_1uhr8ri0pk5.woff") format("woff"), url("//at.alicdn.com/t/font_1031158_1uhr8ri0pk5.ttf") format("truetype"), url("//at.alicdn.com/t/font_1031158_1uhr8ri0pk5.svg#iconfont") format("svg"); }
</style></defs><path d="M810.667 454.646c0-23.564 19.102-42.667 42.666-42.667 23.564 0 42.667 19.103 42.667 42.667v356.02C896 857.796 857.795 896 810.667 896H213.333C166.205 896 128 857.795 128 810.667V213.333C128 166.205 166.205 128 213.333 128h597.334C857.795 128 896 166.205 896 213.333v66.896c0 23.564-19.103 42.667-42.667 42.667s-42.666-19.103-42.666-42.667v-66.896H213.333v597.334h597.334V454.646z m-147.594-56.7c15.863-17.426 42.848-18.694 60.274-2.831 17.425 15.862 18.693 42.847 2.83 60.273L527.734 673.392c-16.55 18.18-44.999 18.65-62.14 1.025l-112.18-115.35c-16.429-16.893-16.053-43.905 0.84-60.334 16.893-16.428 43.905-16.052 60.334 0.84l80.567 82.843 167.92-184.47z" p-id="4029" fill="#2c2c2c"></path></svg>