<?xml version="1.0" standalone="no"?><!DOCTYPE svg PUBLIC "-//W3C//DTD SVG 1.1//EN" "http://www.w3.org/Graphics/SVG/1.1/DTD/svg11.dtd"><svg t="1627117441115" class="icon" viewBox="0 0 1024 1024" version="1.1" xmlns="http://www.w3.org/2000/svg" p-id="5924" xmlns:xlink="http://www.w3.org/1999/xlink" width="200" height="200"><defs><style type="text/css">@font-face { font-family: feedback-iconfont; src: url("//at.alicdn.com/t/font_1031158_1uhr8ri0pk5.eot?#iefix") format("embedded-opentype"), url("//at.alicdn.com/t/font_1031158_1uhr8ri0pk5.woff2") format("woff2"), url("//at.alicdn.com/t/font_1031158_1uhr8ri0pk5.woff") format("woff"), url("//at.alicdn.com/t/font_1031158_1uhr8ri0pk5.ttf") format("truetype"), url("//at.alicdn.com/t/font_1031158_1uhr8ri0pk5.svg#iconfont") format("svg"); }
</style></defs><path d="M716.6464 789.25824h35.83488c20.75136 0 37.71904-12.5696 37.71904-27.97568s-16.96768-27.97568-37.71904-27.97568h-35.83488c-20.75648 0-37.72416 12.5696-37.72416 27.97568 0.31744 15.40608 16.96768 27.97568 37.72416 27.97568zM716.6464 622.336h35.83488c20.75136 0 37.71904-12.5696 37.71904-27.97568 0-15.40096-16.96768-27.97568-37.71904-27.97568h-35.83488c-20.75648 0-37.72416 12.57472-37.72416 27.97568 0.31744 15.40608 16.96768 27.97568 37.72416 27.97568zM494.08 622.336h36.15232c20.74624 0 37.71904-12.5696 37.71904-27.97568 0-15.40096-16.9728-27.97568-37.71904-27.97568H494.08c-20.74624 0-37.71904 12.57472-37.71904 27.97568 0 15.40608 16.9728 27.97568 37.71904 27.97568zM271.51872 622.336h35.83488c20.75136 0 37.72928-12.5696 37.72928-27.97568 0-15.40096-16.97792-27.97568-37.72928-27.97568h-35.83488c-20.74624 0-37.72416 12.57472-37.72416 27.97568 0 15.40608 16.6656 27.97568 37.72416 27.97568zM494.08 789.25824h36.15232c20.74624 0 37.71904-12.5696 37.71904-27.97568s-16.9728-27.97568-37.71904-27.97568H494.08c-20.74624 0-37.71904 12.5696-37.71904 27.97568s16.9728 27.97568 37.71904 27.97568zM271.51872 789.25824h35.83488c20.75136 0 37.72928-12.5696 37.72928-27.97568s-16.97792-27.97568-37.72928-27.97568h-35.83488c-20.74624 0-37.72416 12.5696-37.72416 27.97568s16.6656 27.97568 37.72416 27.97568z" fill="#2c2c2c" p-id="5925"></path><path d="M793.344 176.58368h-56.26368V97.36704v-2.2016a27.38176 27.38176 0 0 0-27.35104-27.35104c-14.7712 0-27.03872 11.95008-27.35104 27.02848V176.896H344.13568V97.36704v-2.2016a27.37664 27.37664 0 0 0-27.34592-27.35104 27.0336 27.0336 0 0 0-27.0336 27.02848V176.896H230.656C140.11392 176.58368 66.56 240.08704 66.56 359.85408v430.6688c0 86.12864 65.38752 157.17376 148.3776 165.03296l578.4064 0.62464c90.53696 0 164.096-74.1888 164.096-165.6576V342.56384c0-91.47904-73.55904-165.98016-164.096-165.98016z m108.45696 630.28224c0 51.87072-44.94848 93.68064-99.96288 93.68064H222.48448c-55.32672 0-99.97312-42.12736-99.97312-93.68064V455.10656h779.60192l-0.31232 351.75936z m0-480.65024V399.4624H122.51136V326.21568c0-45.89568 40.2432-93.67552 111.2832-93.67552h55.9616V316.16c0.31744 14.45376 12.56448 26.40384 27.34592 26.40384a27.3664 27.3664 0 0 0 27.34592-27.35104V232.54016h338.24256V316.16c0.31744 14.45376 12.57472 26.40384 27.35616 26.40384a27.38176 27.38176 0 0 0 27.35104-27.35104V232.54016h53.12c55.0144 0 116.31104 40.54528 111.2832 93.67552z" fill="#2c2c2c" p-id="5926"></path></svg>