<?xml version="1.0" standalone="no"?><!DOCTYPE svg PUBLIC "-//W3C//DTD SVG 1.1//EN" "http://www.w3.org/Graphics/SVG/1.1/DTD/svg11.dtd"><svg t="1627095632740" class="icon" viewBox="0 0 1024 1024" version="1.1" xmlns="http://www.w3.org/2000/svg" p-id="1580" xmlns:xlink="http://www.w3.org/1999/xlink" width="200" height="200"><defs><style type="text/css">@font-face { font-family: feedback-iconfont; src: url("//at.alicdn.com/t/font_1031158_1uhr8ri0pk5.eot?#iefix") format("embedded-opentype"), url("//at.alicdn.com/t/font_1031158_1uhr8ri0pk5.woff2") format("woff2"), url("//at.alicdn.com/t/font_1031158_1uhr8ri0pk5.woff") format("woff"), url("//at.alicdn.com/t/font_1031158_1uhr8ri0pk5.ttf") format("truetype"), url("//at.alicdn.com/t/font_1031158_1uhr8ri0pk5.svg#iconfont") format("svg"); }
</style></defs><path d="M762.6 1024H261.4c-103.6 0-187.9-84.3-187.9-187.9V407.3c0-36.3 14.1-70.4 39.8-96L406 18.5C418 6.6 433.8 0 450.7 0c16.9 0 32.8 6.6 44.7 18.5 11.9 11.9 18.5 27.7 18.5 44.6v210.5c0 74.9-60.9 135.8-135.8 135.8l-222.2-0.4v427.1c0 58.2 47.3 105.5 105.5 105.5h501.3c58.2 0 105.5-47.3 105.5-105.5V200c0-58.2-47.3-105.5-105.5-105.5H659.4c-22.8 0-41.2-18.4-41.2-41.2s18.4-41.2 41.2-41.2h103.2c103.6 0 187.9 84.3 187.9 187.9v636.1c0 103.6-84.3 187.9-187.9 187.9zM214.4 326.7l163.7 0.4c29.3 0 53.2-24 53.3-53.4v-164l-217 217z" fill="#707070" p-id="1581"></path><path d="M679.681 615.954h-335.3c-22.8 0-41.2-18.4-41.2-41.2s18.4-41.2 41.2-41.2h335.3c22.8 0 41.2 18.4 41.2 41.2s-18.5 41.2-41.2 41.2zM679.681 821.954h-335.3c-22.8 0-41.2-18.4-41.2-41.2 0-22.8 18.4-41.2 41.2-41.2h335.3c22.8 0 41.2 18.4 41.2 41.2 0 22.8-18.5 41.2-41.2 41.2z" fill="#707070" p-id="1582"></path></svg>