<svg t="1618837720816" class="icon" viewBox="0 0 1024 1024" version="1.1" xmlns="http://www.w3.org/2000/svg" p-id="1068" width="200" height="200"><path d="M511.700059 593.384105C348.132005 593.384105 215.057996 460.310096 215.057996 296.642062S348.132005 0 511.700059 0s296.642062 133.074009 296.642062 296.642062-132.974029 296.742043-296.642062 296.742043z m0-523.597735c-125.075571 0-226.855692 101.780121-226.855693 226.855692s101.780121 226.855692 226.855693 226.855692 226.855692-101.780121 226.855692-226.855692S636.87561 69.78637 511.700059 69.78637z" fill="#999999" p-id="1069"></path><path d="M936.417106 1023.800039c-18.096466 0-33.293497-13.797305-34.793204-31.993751-0.09998-0.999805-9.298184-101.280219-63.187659-199.261082-69.78637-126.675259-179.564929-190.962703-326.436243-190.962703-147.771138 0-257.749658 64.887327-326.736184 192.762352-52.78969 97.980863-60.988088 196.261668-61.088069 197.261472-1.499707 18.696348-17.396602 32.993556-36.192931 32.193712-18.696348-0.699863-33.593439-16.096856-33.593439-34.893185v-3.599297c0-0.899824 0-1.699668 0.099981-2.599492 0.299941-4.599102 9.198203-114.27768 68.786565-225.056044C179.664909 652.972466 292.842804 528.196837 512 528.196837c218.757274 0 332.435071 124.77563 389.22398 229.355204 60.188244 110.778364 69.586409 220.356962 69.98633 224.956063 0.09998 0.899824 0.09998 1.899629 0.099981 2.799453v3.599297c0 18.696348-14.79711 34.093341-33.493458 34.893185h-1.399727z" fill="#999999" p-id="1070"></path></svg>