<?xml version="1.0" standalone="no"?><!DOCTYPE svg PUBLIC "-//W3C//DTD SVG 1.1//EN" "http://www.w3.org/Graphics/SVG/1.1/DTD/svg11.dtd"><svg t="1627116555953" class="icon" viewBox="0 0 1024 1024" version="1.1" xmlns="http://www.w3.org/2000/svg" p-id="1926" xmlns:xlink="http://www.w3.org/1999/xlink" width="200" height="200"><defs><style type="text/css">@font-face { font-family: feedback-iconfont; src: url("//at.alicdn.com/t/font_1031158_1uhr8ri0pk5.eot?#iefix") format("embedded-opentype"), url("//at.alicdn.com/t/font_1031158_1uhr8ri0pk5.woff2") format("woff2"), url("//at.alicdn.com/t/font_1031158_1uhr8ri0pk5.woff") format("woff"), url("//at.alicdn.com/t/font_1031158_1uhr8ri0pk5.ttf") format("truetype"), url("//at.alicdn.com/t/font_1031158_1uhr8ri0pk5.svg#iconfont") format("svg"); }
</style></defs><path d="M896 224H128c-35.2 0-64 28.8-64 64v448c0 35.2 28.8 64 64 64h768c35.2 0 64-28.8 64-64V288c0-35.2-28.8-64-64-64z m0 480c0 19.2-12.8 32-32 32H160c-19.2 0-32-12.8-32-32V320c0-19.2 12.8-32 32-32h704c19.2 0 32 12.8 32 32v384z" fill="#333333" p-id="1927"></path><path d="M224 352c-19.2 0-32 12.8-32 32v256c0 16 12.8 32 32 32s32-12.8 32-32V384c0-16-12.8-32-32-32z" fill="#333333" p-id="1928"></path></svg>