<?xml version="1.0" standalone="no"?><!DOCTYPE svg PUBLIC "-//W3C//DTD SVG 1.1//EN" "http://www.w3.org/Graphics/SVG/1.1/DTD/svg11.dtd"><svg t="1621301802896" class="icon" viewBox="0 0 1029 1024" version="1.1" xmlns="http://www.w3.org/2000/svg" p-id="1249" xmlns:xlink="http://www.w3.org/1999/xlink" width="200.9765625" height="200"><defs><style type="text/css"></style></defs><path d="M278.528 154.624h-15.872v851.456h76.8V232.448z" fill="#F4EDE7" p-id="1250"></path><path d="M346.112 1006.08H137.728V244.224h208.896v761.856z m-20.48-743.936H158.208V988.16h167.936V262.144z" p-id="1251"></path><path d="M147.968 915.456h187.904v27.648H147.968z" fill="#B98963" p-id="1252"></path><path d="M207.36 254.464h13.824v680.448h-13.824zM269.824 251.904h13.824v680.448h-13.824z" fill="#B98963" p-id="1253"></path><path d="M137.728 258.048v-25.6l104.448-138.752 104.448 138.752v25.6H137.728z m191.488 0v-21.504l-87.04-115.712-87.04 115.712v21.504h174.08z" fill="#B98963" p-id="1254"></path><path d="M242.176 106.496l-33.792 57.856h67.072zM947.2 980.992L424.96 23.552h-17.408v983.04H947.2v-25.6zM424.96 66.048h5.632l493.568 921.088H424.96V66.048z" fill="#B98963" p-id="1255"></path><path d="M750.08 902.656l-213.504-391.68h-18.944v403.968h232.448v-12.288zM534.528 542.72h2.048l193.024 359.936h-195.072V542.72zM412.16 134.656h39.424v11.776h-39.424zM412.16 232.448h39.424v11.776h-39.424zM412.16 317.44h39.424v11.776h-39.424zM412.16 402.944h39.424V414.72h-39.424zM412.16 487.936h39.424v11.776h-39.424zM412.16 573.44h39.424v11.776h-39.424zM412.16 658.944h39.424v11.776h-39.424zM412.16 743.936h39.424v11.776h-39.424zM412.16 829.44h39.424v11.776h-39.424zM412.16 914.432h39.424v11.776h-39.424z" fill="#B98963" p-id="1256"></path></svg>